<?xml version="1.0" encoding="UTF-8" standalone="no"?> <svg xmlns="http://www.w3.org/2000/svg" version="1.0" width="221.000000pt" height="197.000000pt" viewBox="0 0 221.000000 197.000000" preserveAspectRatio="xMidYMid meet"><g transform="translate(0.000000,197.000000) scale(0.100000,-0.100000)" fill="#000000" stroke="none"><path d="M630 1939 c-144 -15 -268 -70 -366 -162 -144 -134 -215 -290 -215 -477 -1 -142 34 -265 103 -370 38 -56 833 -856 871 -876 45 -24 120 -20 169 9 39 23 171 151 224 217 11 14 123 126 249 250 325 318 368 367 420 475 51 106 67 176 66 294 -2 291 -207 552 -491 626 -166 43 -392 2 -532 -97 l-27 -19 -53 34 c-129 81 -264 112 -418 96z m188 -113 c71 -15 192 -71 192 -89 0 -6 -101 -113 -224 -237 -148 -148 -227 -235 -232 -253 -11 -45 12 -102 56 -140 l39 -33 -105 -105 c-59 -57 -114 -116 -124 -132 l-17 -27 -79 82 c-115 121 -173 254 -174 399 0 61 34 191 68 259 34 69 139 176 214 218 112 64 257 85 386 58z m788 3 c132 -24 245 -100 340 -229 128 -174 131 -429 6 -615 -20 -30 -214 -232 -431 -450 -333 -334 -399 -395 -423 -395 -37 0 -68 32 -68 72 0 28 24 56 200 233 110 111 200 209 200 217 0 9 -8 26 -19 39 l-19 23 -98 -79 c-54 -44 -150 -133 -214 -198 -128 -130 -155 -145 -203 -107 -19 15 -27 31 -27 52 0 27 26 58 200 233 110 111 200 208 200 216 0 25 -30 59 -52 59 -14 0 -89 -67 -223 -200 -175 -174 -206 -200 -233 -200 -21 0 -37 8 -51 26 -42 53 -35 62 179 279 137 137 200 208 200 223 0 32 -42 57 -72 42 -13 -6 -106 -97 -208 -201 -173 -177 -187 -189 -221 -189 -44 0 -72 28 -72 71 0 26 40 71 326 357 218 218 327 335 327 348 0 30 -34 58 -63 50 -13 -3 -99 -82 -191 -176 -163 -166 -168 -170 -193 -158 -65 32 -68 29 217 311 285 282 311 303 442 337 84 22 159 25 244 9z"></path></g></svg> 