<svg width="72" height="72" xmlns="http://www.w3.org/2000/svg">
 <!-- Created with SVG Editor - http://github.com/mzalive/SVG Editor/ -->
 <g>
  <title>background</title>
  <rect fill="none" id="canvas_background" height="74" width="74" y="-1" x="-1"/>
 </g>
 <g>
  <title>Layer 1</title>
  <path id="svg_1" d="m71.786111,62.261742l-19.196914,-19.196914c2.586164,-4.26449 4.102851,-9.253641 4.105541,-14.603777c-0.00269,-15.605919 -12.6399,-28.245819 -28.237729,-28.251208c-15.600529,0.00539 -28.243119,12.64529 -28.243119,28.248508c0,15.595139 12.64259,28.235039 28.243119,28.235039c5.352826,0 10.341976,-1.516677 14.606466,-4.102841l19.202304,19.199604l9.520332,-9.528412zm-60.799214,-33.803391c0.016159,-9.649633 7.820468,-17.451253 17.467412,-17.472801c9.641564,0.021548 17.451253,7.823168 17.467422,17.472801c-0.018859,9.644264 -7.825858,17.445873 -17.467422,17.467422c-9.646944,-0.021548 -17.451253,-7.823158 -17.467412,-17.467422z" stroke-width="1.5" fill="#000"/>
 </g>
</svg>